<svg width="120" height="144" viewBox="0 0 120 144" fill="none" xmlns="http://www.w3.org/2000/svg">
<path d="M113.847 93.5539C114.367 93.7734 114.887 93.8831 115.408 93.8831C116.24 93.8831 116.969 93.6637 117.489 93.1147C118.009 92.5655 118.425 91.7968 118.634 90.8087C118.842 89.8203 119.05 88.6124 119.05 87.2948V43.5925C119.05 42.2749 118.946 40.9571 118.634 39.6395C118.425 38.3219 118.009 37.114 117.489 35.9061C116.969 34.6985 116.24 33.6004 115.408 32.612C114.575 31.6238 113.535 30.7454 112.39 29.9768L109.164 28.0003C108.019 27.2316 106.979 26.9023 106.146 26.9023C105.314 26.9023 104.585 27.1219 104.065 27.6708C103.545 28.2199 103.128 28.9886 102.92 29.9768C102.712 30.9649 102.504 32.1728 102.504 33.4904V77.3027C102.504 78.6203 102.608 79.9379 102.92 81.2555C103.128 82.5733 103.545 83.7809 104.065 84.9891C104.585 86.197 105.314 87.2948 106.146 88.2832C106.875 89.1616 107.707 89.9303 108.644 90.5893L103.441 87.5146L28.8274 122.542L35.2794 126.385L49.9523 119.578L65.5617 128.911L54.1149 137.695L60.7749 141.648L119.05 96.6283L113.847 93.5539ZM70.1403 125.068L55.8837 116.503L103.024 94.3223L108.227 97.397L70.1403 125.068ZM112.39 85.9772L109.164 84.0007C108.435 83.5615 108.019 83.0126 107.707 82.2439C107.395 81.5849 107.291 80.8163 107.291 80.1576V36.2356C107.291 35.5769 107.395 35.0277 107.707 34.5885C108.019 34.2593 108.435 34.2593 109.164 34.6985L112.39 36.6748C113.014 37.114 113.535 37.6632 113.847 38.3219C114.159 39.0905 114.263 39.7495 114.263 40.4081V84.2201C114.263 84.8794 114.159 85.4283 113.847 85.8675C113.431 86.4164 113.014 86.3067 112.39 85.9772Z" fill="white"/>
<path d="M95.4254 81.8047C96.3623 81.8047 96.9866 81.5852 97.6108 81.036C98.1311 80.4871 98.5474 79.7184 98.8594 78.73C99.1717 77.7419 99.2757 76.534 99.2757 75.2164V30.9652C99.2757 29.6476 99.1717 28.3296 98.8594 27.012C98.5474 25.6944 98.2351 24.4865 97.6108 23.2786C97.0906 22.0708 96.3623 20.9727 95.4254 19.9845C94.4891 18.9963 93.4483 18.008 92.1994 17.3492L88.7654 15.3727C87.5166 14.604 86.3723 14.2747 85.5394 14.1648C84.6029 14.1648 83.8746 14.3844 83.3543 14.9335C82.8337 15.4825 82.4177 16.2511 82.1054 17.2394C81.7934 18.2276 81.6894 19.4354 81.6894 20.7531V64.8948C81.6894 66.2124 81.7934 67.53 82.1054 68.8475C82.4177 70.1654 82.7297 71.483 83.3543 72.5812C83.8746 73.7891 84.6029 74.8869 85.5394 75.9851C86.1637 76.6437 86.8923 77.3027 87.6208 77.8516L86.4763 77.1929L62.6457 91.4677L62.4377 75.5459L73.052 69.177L79.9203 17.3492V10.2118L63.4783 0V7.1373L74.7171 14.055L66.6003 65.2242L48.9094 75.7653L49.0137 75.6556L52.4477 73.3499C53.6966 72.4715 54.8409 71.483 55.6737 70.2752C56.61 69.0673 57.3386 67.8594 57.8589 66.5418C58.3794 65.2242 58.7954 63.7966 59.1077 62.2593C59.4197 60.7222 59.5237 59.2946 59.5237 57.7575V8.12557C59.5237 6.6981 59.4197 5.38045 59.1077 4.1726C58.7954 3.07454 58.4834 2.1961 57.8589 1.53727C57.3386 0.878438 56.61 0.658829 55.6737 0.658829C54.7369 0.658829 53.6966 1.09805 52.4477 1.97649L49.0137 4.28239C47.7649 5.16085 46.62 6.14906 45.7877 7.35693C44.8509 8.56477 44.1226 9.77265 43.6023 11.0903C43.082 12.408 42.6657 13.8354 42.3537 15.3727C42.0414 16.91 41.9374 18.3374 41.9374 19.8747V69.6162C41.9374 71.1536 42.0414 72.3614 42.3537 73.5693C42.6657 74.6675 42.978 75.5459 43.6023 76.2045C44.1226 76.8635 44.8509 77.0829 45.7877 77.0829C46.412 77.0829 47.2446 76.8635 48.0769 76.3145L28.2009 88.2829L31.5309 85.9775C32.7797 85.0988 33.8206 84.1107 34.7569 82.9028C35.6937 81.6949 36.318 80.4871 36.9423 79.1692C37.4626 77.8516 37.8789 76.4243 38.1909 74.8869C38.3991 73.3499 38.6071 71.9222 38.6071 70.3852V20.863C38.6071 19.4355 38.5031 18.1178 38.1909 16.91C37.9829 15.8119 37.5666 14.9335 36.9423 14.2747C36.422 13.6158 35.6937 13.3962 34.7569 13.3962C33.9246 13.3962 32.7797 13.8354 31.5309 14.7139L28.2009 17.0198C26.9521 17.8982 25.9117 18.8864 24.975 20.0943C24.0386 21.3022 23.4141 22.51 22.7897 23.8277C22.2694 25.1453 21.8532 26.5728 21.6451 28.11C21.4369 29.6476 21.2288 31.0746 21.2288 32.6123V82.2439C21.2288 83.7812 21.3329 84.9891 21.6451 86.197C21.8532 87.2951 22.2694 88.1735 22.7897 88.8322C23.3101 89.4911 24.0386 89.7106 24.975 89.7106C25.5995 89.7106 26.2238 89.4911 27.0562 89.0519L6.45189 101.24C6.55594 101.13 6.76409 101.021 6.86814 100.911L9.99003 98.7146C11.2388 97.8362 12.2794 96.8481 13.2159 95.6399C14.0485 94.4323 14.7769 93.2244 15.4013 91.7968C15.9216 90.4792 16.3378 88.9422 16.65 87.5146C16.8582 85.9775 17.0663 84.4399 17.0663 83.0125V56.3299C17.0663 54.7929 16.9622 53.475 16.65 52.3768C16.3378 51.1692 16.0257 50.2906 15.4013 49.7416C14.881 49.083 14.1525 48.8632 13.2159 48.8632C12.3835 48.8632 11.2388 49.3024 9.99003 50.1808L4.89094 53.6947V38.7613L16.2338 30.9652V23.059L0 34.259V64.8948L10.0941 57.977C10.8225 57.4281 11.3428 57.4281 11.655 57.7575C11.9672 58.1967 12.0713 58.7457 12.0713 59.7338V86.4167C12.0713 87.2951 11.9672 88.0635 11.655 88.8322C11.3428 89.6008 10.8225 90.2598 10.0941 90.8087L6.9722 93.0047C6.24377 93.5536 5.72346 93.5536 5.41126 93.1144C5.09909 92.6752 4.995 92.0166 4.995 91.2479V71.5928L0 74.9966V94.6521C0 96.1891 0.104063 97.5067 0.416251 98.6049C0.624377 99.8127 1.04063 100.691 1.56094 101.24C2.08125 101.899 2.80969 102.118 3.74626 102.118C4.37066 102.118 5.20314 101.899 6.03566 101.35L0 105.083L6.55594 108.927L53.6966 80.7068L54.3209 96.2989L19.9801 116.832L26.5359 120.676L93.0323 80.8166C93.8646 81.5852 94.6971 81.8047 95.4254 81.8047ZM26.64 80.5968C26.3279 80.1576 26.2238 79.6084 26.2238 78.73V29.0984C26.2238 28.3296 26.3279 27.4512 26.64 26.6825C26.9521 25.914 27.4726 25.2552 28.2009 24.7061L31.5309 22.4002C32.2594 21.961 32.6757 21.8512 32.988 22.2904C33.3 22.7296 33.404 23.2786 33.404 24.1572V73.7891C33.404 74.5574 33.3 75.4361 32.988 76.2045C32.6757 76.9732 32.1554 77.6321 31.5309 78.0713L28.2009 80.3773C27.4726 80.9263 26.9521 81.036 26.64 80.5968ZM47.4526 68.0792C47.1406 67.64 47.0366 67.0908 47.0366 66.2124V16.4707C47.0366 15.7021 47.1406 14.8237 47.4526 14.055C47.7649 13.2864 48.2851 12.6276 49.0137 12.0785L52.4477 9.77265C53.176 9.33342 53.6966 9.2236 54.0086 9.66283C54.3209 10.1021 54.4249 10.6511 54.4249 11.5295V61.2711C54.4249 62.0398 54.3209 62.9182 54.0086 63.6869C53.6966 64.4556 53.176 65.1145 52.4477 65.5537L49.0137 67.8594C48.2851 68.4084 47.7649 68.5184 47.4526 68.0792ZM88.7654 71.7028C88.0371 71.2636 87.5166 70.7144 87.2046 69.946C86.8923 69.2868 86.7883 68.5184 86.7883 67.8594V23.7179C86.7883 22.9492 86.8923 22.4002 87.2046 22.0708C87.5166 21.7414 88.0371 21.7414 88.7654 22.1806L92.1994 24.1572C92.928 24.5964 93.3443 25.1453 93.6566 25.914C93.9686 26.6825 94.0726 27.3415 94.0726 28.11V72.2514C94.0726 73.0204 93.9686 73.4596 93.6566 73.8988C93.3443 74.2283 92.824 74.2283 92.1994 73.7891L88.7654 71.7028Z" fill="white"/>
</svg>
